<mxfile>
    <diagram id="8VIJFU3JoXfJp88hNdMO" name="Page-1">
        <mxGraphModel dx="1126" dy="454" grid="1" gridSize="10" guides="1" tooltips="1" connect="1" arrows="1" fold="1" page="1" pageScale="1" pageWidth="1169" pageHeight="827" math="0" shadow="0">
            <root>
                <mxCell id="0"/>
                <mxCell id="1" parent="0"/>
                <mxCell id="MBYqdPuZh9vwk6nwRBUG-14" value="news" style="shape=table;startSize=30;container=1;collapsible=0;childLayout=tableLayout;fixedRows=1;rowLines=0;fontStyle=1;align=center;fontFamily=Verdana;fontSize=15;" parent="1" vertex="1">
                    <mxGeometry x="980" y="140" width="120" height="210" as="geometry"/>
                </mxCell>
                <mxCell id="MBYqdPuZh9vwk6nwRBUG-15" value="" style="shape=partialRectangle;html=1;whiteSpace=wrap;collapsible=0;dropTarget=0;pointerEvents=0;fillColor=none;top=0;left=0;bottom=1;right=0;points=[[0,0.5],[1,0.5]];portConstraint=eastwest;fontFamily=Verdana;fontSize=15;" parent="MBYqdPuZh9vwk6nwRBUG-14" vertex="1">
                    <mxGeometry y="30" width="120" height="30" as="geometry"/>
                </mxCell>
                <mxCell id="MBYqdPuZh9vwk6nwRBUG-16" value="PK" style="shape=partialRectangle;html=1;whiteSpace=wrap;connectable=0;fillColor=none;top=0;left=0;bottom=0;right=0;overflow=hidden;fontFamily=Verdana;fontSize=15;" parent="MBYqdPuZh9vwk6nwRBUG-15" vertex="1">
                    <mxGeometry width="40" height="30" as="geometry"/>
                </mxCell>
                <mxCell id="MBYqdPuZh9vwk6nwRBUG-17" value="&lt;span style=&quot;text-align: center&quot;&gt;_id&lt;/span&gt;" style="shape=partialRectangle;html=1;whiteSpace=wrap;connectable=0;fillColor=none;top=0;left=0;bottom=0;right=0;align=left;spacingLeft=6;overflow=hidden;fontFamily=Verdana;fontSize=15;" parent="MBYqdPuZh9vwk6nwRBUG-15" vertex="1">
                    <mxGeometry x="40" width="80" height="30" as="geometry"/>
                </mxCell>
                <mxCell id="MBYqdPuZh9vwk6nwRBUG-18" value="" style="shape=partialRectangle;html=1;whiteSpace=wrap;collapsible=0;dropTarget=0;pointerEvents=0;fillColor=none;top=0;left=0;bottom=0;right=0;points=[[0,0.5],[1,0.5]];portConstraint=eastwest;fontFamily=Verdana;fontSize=15;" parent="MBYqdPuZh9vwk6nwRBUG-14" vertex="1">
                    <mxGeometry y="60" width="120" height="30" as="geometry"/>
                </mxCell>
                <mxCell id="MBYqdPuZh9vwk6nwRBUG-19" value="" style="shape=partialRectangle;html=1;whiteSpace=wrap;connectable=0;fillColor=none;top=0;left=0;bottom=0;right=0;overflow=hidden;fontFamily=Verdana;fontSize=15;" parent="MBYqdPuZh9vwk6nwRBUG-18" vertex="1">
                    <mxGeometry width="40" height="30" as="geometry"/>
                </mxCell>
                <mxCell id="MBYqdPuZh9vwk6nwRBUG-20" value="title" style="shape=partialRectangle;html=1;whiteSpace=wrap;connectable=0;fillColor=none;top=0;left=0;bottom=0;right=0;align=left;spacingLeft=6;overflow=hidden;fontFamily=Verdana;fontSize=15;" parent="MBYqdPuZh9vwk6nwRBUG-18" vertex="1">
                    <mxGeometry x="40" width="80" height="30" as="geometry"/>
                </mxCell>
                <mxCell id="MBYqdPuZh9vwk6nwRBUG-21" value="" style="shape=partialRectangle;html=1;whiteSpace=wrap;collapsible=0;dropTarget=0;pointerEvents=0;fillColor=none;top=0;left=0;bottom=0;right=0;points=[[0,0.5],[1,0.5]];portConstraint=eastwest;fontFamily=Verdana;fontSize=15;" parent="MBYqdPuZh9vwk6nwRBUG-14" vertex="1">
                    <mxGeometry y="90" width="120" height="30" as="geometry"/>
                </mxCell>
                <mxCell id="MBYqdPuZh9vwk6nwRBUG-22" value="" style="shape=partialRectangle;html=1;whiteSpace=wrap;connectable=0;fillColor=none;top=0;left=0;bottom=0;right=0;overflow=hidden;fontFamily=Verdana;fontSize=15;" parent="MBYqdPuZh9vwk6nwRBUG-21" vertex="1">
                    <mxGeometry width="40" height="30" as="geometry"/>
                </mxCell>
                <mxCell id="MBYqdPuZh9vwk6nwRBUG-23" value="img" style="shape=partialRectangle;html=1;whiteSpace=wrap;connectable=0;fillColor=none;top=0;left=0;bottom=0;right=0;align=left;spacingLeft=6;overflow=hidden;fontFamily=Verdana;fontSize=15;" parent="MBYqdPuZh9vwk6nwRBUG-21" vertex="1">
                    <mxGeometry x="40" width="80" height="30" as="geometry"/>
                </mxCell>
                <mxCell id="MBYqdPuZh9vwk6nwRBUG-24" style="shape=partialRectangle;html=1;whiteSpace=wrap;collapsible=0;dropTarget=0;pointerEvents=0;fillColor=none;top=0;left=0;bottom=0;right=0;points=[[0,0.5],[1,0.5]];portConstraint=eastwest;fontFamily=Verdana;fontSize=15;" parent="MBYqdPuZh9vwk6nwRBUG-14" vertex="1">
                    <mxGeometry y="120" width="120" height="30" as="geometry"/>
                </mxCell>
                <mxCell id="MBYqdPuZh9vwk6nwRBUG-25" style="shape=partialRectangle;html=1;whiteSpace=wrap;connectable=0;fillColor=none;top=0;left=0;bottom=0;right=0;overflow=hidden;fontFamily=Verdana;fontSize=15;" parent="MBYqdPuZh9vwk6nwRBUG-24" vertex="1">
                    <mxGeometry width="40" height="30" as="geometry"/>
                </mxCell>
                <mxCell id="MBYqdPuZh9vwk6nwRBUG-26" value="text" style="shape=partialRectangle;html=1;whiteSpace=wrap;connectable=0;fillColor=none;top=0;left=0;bottom=0;right=0;align=left;spacingLeft=6;overflow=hidden;fontFamily=Verdana;fontSize=15;" parent="MBYqdPuZh9vwk6nwRBUG-24" vertex="1">
                    <mxGeometry x="40" width="80" height="30" as="geometry"/>
                </mxCell>
                <mxCell id="MBYqdPuZh9vwk6nwRBUG-27" style="shape=partialRectangle;html=1;whiteSpace=wrap;collapsible=0;dropTarget=0;pointerEvents=0;fillColor=none;top=0;left=0;bottom=0;right=0;points=[[0,0.5],[1,0.5]];portConstraint=eastwest;fontFamily=Verdana;fontSize=15;" parent="MBYqdPuZh9vwk6nwRBUG-14" vertex="1">
                    <mxGeometry y="150" width="120" height="30" as="geometry"/>
                </mxCell>
                <mxCell id="MBYqdPuZh9vwk6nwRBUG-28" style="shape=partialRectangle;html=1;whiteSpace=wrap;connectable=0;fillColor=none;top=0;left=0;bottom=0;right=0;overflow=hidden;fontFamily=Verdana;fontSize=15;" parent="MBYqdPuZh9vwk6nwRBUG-27" vertex="1">
                    <mxGeometry width="40" height="30" as="geometry"/>
                </mxCell>
                <mxCell id="MBYqdPuZh9vwk6nwRBUG-29" value="date" style="shape=partialRectangle;html=1;whiteSpace=wrap;connectable=0;fillColor=none;top=0;left=0;bottom=0;right=0;align=left;spacingLeft=6;overflow=hidden;fontFamily=Verdana;fontSize=15;" parent="MBYqdPuZh9vwk6nwRBUG-27" vertex="1">
                    <mxGeometry x="40" width="80" height="30" as="geometry"/>
                </mxCell>
                <mxCell id="MBYqdPuZh9vwk6nwRBUG-30" value="writing" style="shape=table;startSize=30;container=1;collapsible=0;childLayout=tableLayout;fixedRows=1;rowLines=0;fontStyle=1;align=center;fontFamily=Verdana;fontSize=15;" parent="1" vertex="1">
                    <mxGeometry x="340" y="140" width="280" height="150" as="geometry"/>
                </mxCell>
                <mxCell id="MBYqdPuZh9vwk6nwRBUG-31" value="" style="shape=partialRectangle;html=1;whiteSpace=wrap;collapsible=0;dropTarget=0;pointerEvents=0;fillColor=none;top=0;left=0;bottom=1;right=0;points=[[0,0.5],[1,0.5]];portConstraint=eastwest;fontFamily=Verdana;fontSize=15;" parent="MBYqdPuZh9vwk6nwRBUG-30" vertex="1">
                    <mxGeometry y="30" width="280" height="30" as="geometry"/>
                </mxCell>
                <mxCell id="MBYqdPuZh9vwk6nwRBUG-32" value="PK" style="shape=partialRectangle;html=1;whiteSpace=wrap;connectable=0;fillColor=none;top=0;left=0;bottom=0;right=0;overflow=hidden;fontFamily=Verdana;fontSize=15;" parent="MBYqdPuZh9vwk6nwRBUG-31" vertex="1">
                    <mxGeometry width="62" height="30" as="geometry"/>
                </mxCell>
                <mxCell id="MBYqdPuZh9vwk6nwRBUG-33" value="_id" style="shape=partialRectangle;html=1;whiteSpace=wrap;connectable=0;fillColor=none;top=0;left=0;bottom=0;right=0;align=left;spacingLeft=6;overflow=hidden;fontFamily=Verdana;fontSize=15;" parent="MBYqdPuZh9vwk6nwRBUG-31" vertex="1">
                    <mxGeometry x="62" width="218" height="30" as="geometry"/>
                </mxCell>
                <mxCell id="MBYqdPuZh9vwk6nwRBUG-34" value="" style="shape=partialRectangle;html=1;whiteSpace=wrap;collapsible=0;dropTarget=0;pointerEvents=0;fillColor=none;top=0;left=0;bottom=0;right=0;points=[[0,0.5],[1,0.5]];portConstraint=eastwest;fontFamily=Verdana;fontSize=15;" parent="MBYqdPuZh9vwk6nwRBUG-30" vertex="1">
                    <mxGeometry y="60" width="280" height="30" as="geometry"/>
                </mxCell>
                <mxCell id="MBYqdPuZh9vwk6nwRBUG-35" value="" style="shape=partialRectangle;html=1;whiteSpace=wrap;connectable=0;fillColor=none;top=0;left=0;bottom=0;right=0;overflow=hidden;fontFamily=Verdana;fontSize=15;" parent="MBYqdPuZh9vwk6nwRBUG-34" vertex="1">
                    <mxGeometry width="62" height="30" as="geometry"/>
                </mxCell>
                <mxCell id="MBYqdPuZh9vwk6nwRBUG-36" value="date: Date" style="shape=partialRectangle;html=1;whiteSpace=wrap;connectable=0;fillColor=none;top=0;left=0;bottom=0;right=0;align=left;spacingLeft=6;overflow=hidden;fontFamily=Verdana;fontSize=15;" parent="MBYqdPuZh9vwk6nwRBUG-34" vertex="1">
                    <mxGeometry x="62" width="218" height="30" as="geometry"/>
                </mxCell>
                <mxCell id="MBYqdPuZh9vwk6nwRBUG-37" value="" style="shape=partialRectangle;html=1;whiteSpace=wrap;collapsible=0;dropTarget=0;pointerEvents=0;fillColor=none;top=0;left=0;bottom=0;right=0;points=[[0,0.5],[1,0.5]];portConstraint=eastwest;fontFamily=Verdana;fontSize=15;" parent="MBYqdPuZh9vwk6nwRBUG-30" vertex="1">
                    <mxGeometry y="90" width="280" height="30" as="geometry"/>
                </mxCell>
                <mxCell id="MBYqdPuZh9vwk6nwRBUG-38" value="" style="shape=partialRectangle;html=1;whiteSpace=wrap;connectable=0;fillColor=none;top=0;left=0;bottom=0;right=0;overflow=hidden;fontFamily=Verdana;fontSize=15;" parent="MBYqdPuZh9vwk6nwRBUG-37" vertex="1">
                    <mxGeometry width="62" height="30" as="geometry"/>
                </mxCell>
                <mxCell id="MBYqdPuZh9vwk6nwRBUG-39" value="items:writingItem [1...*]" style="shape=partialRectangle;html=1;whiteSpace=wrap;connectable=0;fillColor=none;top=0;left=0;bottom=0;right=0;align=left;spacingLeft=6;overflow=hidden;fontFamily=Verdana;fontSize=15;" parent="MBYqdPuZh9vwk6nwRBUG-37" vertex="1">
                    <mxGeometry x="62" width="218" height="30" as="geometry"/>
                </mxCell>
                <mxCell id="MBYqdPuZh9vwk6nwRBUG-40" value="writingitem" style="shape=table;startSize=30;container=1;collapsible=0;childLayout=tableLayout;fixedRows=1;rowLines=0;fontStyle=1;align=center;fontFamily=Verdana;fontSize=15;" parent="1" vertex="1">
                    <mxGeometry x="680" y="140" width="245" height="210" as="geometry"/>
                </mxCell>
                <mxCell id="MBYqdPuZh9vwk6nwRBUG-41" value="" style="shape=partialRectangle;html=1;whiteSpace=wrap;collapsible=0;dropTarget=0;pointerEvents=0;fillColor=none;top=0;left=0;bottom=1;right=0;points=[[0,0.5],[1,0.5]];portConstraint=eastwest;fontFamily=Verdana;fontSize=15;" parent="MBYqdPuZh9vwk6nwRBUG-40" vertex="1">
                    <mxGeometry y="30" width="245" height="30" as="geometry"/>
                </mxCell>
                <mxCell id="MBYqdPuZh9vwk6nwRBUG-42" value="PK" style="shape=partialRectangle;html=1;whiteSpace=wrap;connectable=0;fillColor=none;top=0;left=0;bottom=0;right=0;overflow=hidden;fontFamily=Verdana;fontSize=15;" parent="MBYqdPuZh9vwk6nwRBUG-41" vertex="1">
                    <mxGeometry width="35" height="30" as="geometry"/>
                </mxCell>
                <mxCell id="MBYqdPuZh9vwk6nwRBUG-43" value="_id" style="shape=partialRectangle;html=1;whiteSpace=wrap;connectable=0;fillColor=none;top=0;left=0;bottom=0;right=0;align=left;spacingLeft=6;overflow=hidden;fontFamily=Verdana;fontSize=15;" parent="MBYqdPuZh9vwk6nwRBUG-41" vertex="1">
                    <mxGeometry x="35" width="210" height="30" as="geometry"/>
                </mxCell>
                <mxCell id="8" style="shape=partialRectangle;html=1;whiteSpace=wrap;collapsible=0;dropTarget=0;pointerEvents=0;fillColor=none;top=0;left=0;bottom=0;right=0;points=[[0,0.5],[1,0.5]];portConstraint=eastwest;fontFamily=Verdana;fontSize=15;" parent="MBYqdPuZh9vwk6nwRBUG-40" vertex="1">
                    <mxGeometry y="60" width="245" height="30" as="geometry"/>
                </mxCell>
                <mxCell id="9" style="shape=partialRectangle;html=1;whiteSpace=wrap;connectable=0;fillColor=none;top=0;left=0;bottom=0;right=0;overflow=hidden;fontFamily=Verdana;fontSize=15;" parent="8" vertex="1">
                    <mxGeometry width="35" height="30" as="geometry"/>
                </mxCell>
                <mxCell id="10" value="&lt;span style=&quot;color: rgb(255 , 255 , 255)&quot;&gt;template: String&lt;/span&gt;" style="shape=partialRectangle;html=1;whiteSpace=wrap;connectable=0;fillColor=none;top=0;left=0;bottom=0;right=0;align=left;spacingLeft=6;overflow=hidden;fontFamily=Verdana;fontSize=15;" parent="8" vertex="1">
                    <mxGeometry x="35" width="210" height="30" as="geometry"/>
                </mxCell>
                <mxCell id="MBYqdPuZh9vwk6nwRBUG-44" style="shape=partialRectangle;html=1;whiteSpace=wrap;collapsible=0;dropTarget=0;pointerEvents=0;fillColor=none;top=0;left=0;bottom=0;right=0;points=[[0,0.5],[1,0.5]];portConstraint=eastwest;fontFamily=Verdana;fontSize=15;" parent="MBYqdPuZh9vwk6nwRBUG-40" vertex="1">
                    <mxGeometry y="90" width="245" height="30" as="geometry"/>
                </mxCell>
                <mxCell id="MBYqdPuZh9vwk6nwRBUG-45" style="shape=partialRectangle;html=1;whiteSpace=wrap;connectable=0;fillColor=none;top=0;left=0;bottom=0;right=0;overflow=hidden;fontFamily=Verdana;fontSize=15;" parent="MBYqdPuZh9vwk6nwRBUG-44" vertex="1">
                    <mxGeometry width="35" height="30" as="geometry"/>
                </mxCell>
                <mxCell id="MBYqdPuZh9vwk6nwRBUG-46" value="c_id:&amp;nbsp;&lt;span style=&quot;font-family: &amp;#34;consolas&amp;#34; , &amp;#34;courier new&amp;#34; , monospace ; color: rgb(78 , 201 , 176)&quot;&gt;mongoose&lt;/span&gt;&lt;span style=&quot;background-color: rgb(30 , 30 , 30) ; color: rgb(212 , 212 , 212) ; font-family: &amp;#34;consolas&amp;#34; , &amp;#34;courier new&amp;#34; , monospace&quot;&gt;.&lt;/span&gt;&lt;span style=&quot;font-family: &amp;#34;consolas&amp;#34; , &amp;#34;courier new&amp;#34; , monospace ; color: rgb(156 , 220 , 254)&quot;&gt;ObjectId&lt;/span&gt;" style="shape=partialRectangle;html=1;whiteSpace=wrap;connectable=0;fillColor=none;top=0;left=0;bottom=0;right=0;align=left;spacingLeft=6;overflow=hidden;fontFamily=Verdana;fontSize=15;" parent="MBYqdPuZh9vwk6nwRBUG-44" vertex="1">
                    <mxGeometry x="35" width="210" height="30" as="geometry"/>
                </mxCell>
                <mxCell id="MBYqdPuZh9vwk6nwRBUG-50" value="" style="shape=partialRectangle;html=1;whiteSpace=wrap;collapsible=0;dropTarget=0;pointerEvents=0;fillColor=none;top=0;left=0;bottom=0;right=0;points=[[0,0.5],[1,0.5]];portConstraint=eastwest;fontFamily=Verdana;fontSize=15;" parent="MBYqdPuZh9vwk6nwRBUG-40" vertex="1">
                    <mxGeometry y="120" width="245" height="30" as="geometry"/>
                </mxCell>
                <mxCell id="MBYqdPuZh9vwk6nwRBUG-51" value="" style="shape=partialRectangle;html=1;whiteSpace=wrap;connectable=0;fillColor=none;top=0;left=0;bottom=0;right=0;overflow=hidden;fontFamily=Verdana;fontSize=15;" parent="MBYqdPuZh9vwk6nwRBUG-50" vertex="1">
                    <mxGeometry width="35" height="30" as="geometry"/>
                </mxCell>
                <mxCell id="MBYqdPuZh9vwk6nwRBUG-52" value="&lt;strike&gt;&lt;font color=&quot;#ffffcc&quot;&gt;titie:String&lt;/font&gt;&lt;/strike&gt;" style="shape=partialRectangle;html=1;whiteSpace=wrap;connectable=0;fillColor=none;top=0;left=0;bottom=0;right=0;align=left;spacingLeft=6;overflow=hidden;fontFamily=Verdana;fontSize=15;" parent="MBYqdPuZh9vwk6nwRBUG-50" vertex="1">
                    <mxGeometry x="35" width="210" height="30" as="geometry"/>
                </mxCell>
                <mxCell id="MBYqdPuZh9vwk6nwRBUG-53" style="shape=partialRectangle;html=1;whiteSpace=wrap;collapsible=0;dropTarget=0;pointerEvents=0;fillColor=none;top=0;left=0;bottom=0;right=0;points=[[0,0.5],[1,0.5]];portConstraint=eastwest;fontFamily=Verdana;fontSize=15;" parent="MBYqdPuZh9vwk6nwRBUG-40" vertex="1">
                    <mxGeometry y="150" width="245" height="30" as="geometry"/>
                </mxCell>
                <mxCell id="MBYqdPuZh9vwk6nwRBUG-54" style="shape=partialRectangle;html=1;whiteSpace=wrap;connectable=0;fillColor=none;top=0;left=0;bottom=0;right=0;overflow=hidden;fontFamily=Verdana;fontSize=15;" parent="MBYqdPuZh9vwk6nwRBUG-53" vertex="1">
                    <mxGeometry width="35" height="30" as="geometry"/>
                </mxCell>
                <mxCell id="MBYqdPuZh9vwk6nwRBUG-55" value="&lt;span style=&quot;font-size: 15px&quot;&gt;&lt;font color=&quot;#ffffcc&quot;&gt;&lt;strike&gt;content:???&lt;/strike&gt;&lt;/font&gt;&lt;br style=&quot;font-size: 15px&quot;&gt;&lt;/span&gt;" style="shape=partialRectangle;html=1;whiteSpace=wrap;connectable=0;fillColor=none;top=0;left=0;bottom=0;right=0;align=left;spacingLeft=6;overflow=hidden;fontFamily=Verdana;fontSize=15;" parent="MBYqdPuZh9vwk6nwRBUG-53" vertex="1">
                    <mxGeometry x="35" width="210" height="30" as="geometry"/>
                </mxCell>
                <mxCell id="MBYqdPuZh9vwk6nwRBUG-56" value="content" style="shape=table;startSize=30;container=1;collapsible=0;childLayout=tableLayout;fixedRows=1;rowLines=0;fontStyle=1;align=center;fontFamily=Verdana;fillColor=none;labelBackgroundColor=none;" parent="1" vertex="1">
                    <mxGeometry x="80" y="430" width="240" height="290" as="geometry"/>
                </mxCell>
                <mxCell id="MBYqdPuZh9vwk6nwRBUG-57" value="" style="shape=partialRectangle;html=1;whiteSpace=wrap;collapsible=0;dropTarget=0;pointerEvents=0;top=0;left=0;bottom=1;right=0;points=[[0,0.5],[1,0.5]];portConstraint=eastwest;fontFamily=Verdana;fillColor=none;labelBackgroundColor=none;" parent="MBYqdPuZh9vwk6nwRBUG-56" vertex="1">
                    <mxGeometry y="30" width="240" height="30" as="geometry"/>
                </mxCell>
                <mxCell id="MBYqdPuZh9vwk6nwRBUG-58" value="PK" style="shape=partialRectangle;html=1;whiteSpace=wrap;connectable=0;top=0;left=0;bottom=0;right=0;overflow=hidden;fontFamily=Verdana;fillColor=none;labelBackgroundColor=none;" parent="MBYqdPuZh9vwk6nwRBUG-57" vertex="1">
                    <mxGeometry width="48" height="30" as="geometry"/>
                </mxCell>
                <mxCell id="MBYqdPuZh9vwk6nwRBUG-59" value="_id" style="shape=partialRectangle;html=1;whiteSpace=wrap;connectable=0;top=0;left=0;bottom=0;right=0;align=left;spacingLeft=6;overflow=hidden;fontFamily=Verdana;fillColor=none;labelBackgroundColor=none;" parent="MBYqdPuZh9vwk6nwRBUG-57" vertex="1">
                    <mxGeometry x="48" width="192" height="30" as="geometry"/>
                </mxCell>
                <mxCell id="2" style="shape=partialRectangle;html=1;whiteSpace=wrap;collapsible=0;dropTarget=0;pointerEvents=0;top=0;left=0;bottom=0;right=0;points=[[0,0.5],[1,0.5]];portConstraint=eastwest;fontFamily=Verdana;fillColor=none;labelBackgroundColor=none;" parent="MBYqdPuZh9vwk6nwRBUG-56" vertex="1">
                    <mxGeometry y="60" width="240" height="30" as="geometry"/>
                </mxCell>
                <mxCell id="3" style="shape=partialRectangle;html=1;whiteSpace=wrap;connectable=0;top=0;left=0;bottom=0;right=0;overflow=hidden;fontFamily=Verdana;fillColor=none;labelBackgroundColor=none;" parent="2" vertex="1">
                    <mxGeometry width="48" height="30" as="geometry"/>
                </mxCell>
                <mxCell id="4" value="&lt;span style=&quot;font-size: 15px&quot;&gt;&lt;strike&gt;&lt;font color=&quot;#ffe6cc&quot;&gt;template: String&lt;/font&gt;&lt;/strike&gt;&lt;/span&gt;" style="shape=partialRectangle;html=1;whiteSpace=wrap;connectable=0;top=0;left=0;bottom=0;right=0;align=left;spacingLeft=6;overflow=hidden;fontFamily=Verdana;fillColor=none;labelBackgroundColor=none;" parent="2" vertex="1">
                    <mxGeometry x="48" width="192" height="30" as="geometry"/>
                </mxCell>
                <mxCell id="5" style="shape=partialRectangle;html=1;whiteSpace=wrap;collapsible=0;dropTarget=0;pointerEvents=0;top=0;left=0;bottom=0;right=0;points=[[0,0.5],[1,0.5]];portConstraint=eastwest;fontFamily=Verdana;fillColor=none;labelBackgroundColor=none;" parent="MBYqdPuZh9vwk6nwRBUG-56" vertex="1">
                    <mxGeometry y="90" width="240" height="20" as="geometry"/>
                </mxCell>
                <mxCell id="6" style="shape=partialRectangle;html=1;whiteSpace=wrap;connectable=0;top=0;left=0;bottom=0;right=0;overflow=hidden;fontFamily=Verdana;fillColor=none;labelBackgroundColor=none;" parent="5" vertex="1">
                    <mxGeometry width="48" height="20" as="geometry"/>
                </mxCell>
                <mxCell id="7" value="&lt;span style=&quot;font-size: 15px&quot;&gt;titie:String&lt;/span&gt;" style="shape=partialRectangle;html=1;whiteSpace=wrap;connectable=0;top=0;left=0;bottom=0;right=0;align=left;spacingLeft=6;overflow=hidden;fontFamily=Verdana;fillColor=none;labelBackgroundColor=none;" parent="5" vertex="1">
                    <mxGeometry x="48" width="192" height="20" as="geometry"/>
                </mxCell>
                <mxCell id="MBYqdPuZh9vwk6nwRBUG-60" style="shape=partialRectangle;html=1;whiteSpace=wrap;collapsible=0;dropTarget=0;pointerEvents=0;top=0;left=0;bottom=0;right=0;points=[[0,0.5],[1,0.5]];portConstraint=eastwest;fontFamily=Verdana;fillColor=none;labelBackgroundColor=none;" parent="MBYqdPuZh9vwk6nwRBUG-56" vertex="1">
                    <mxGeometry y="110" width="240" height="30" as="geometry"/>
                </mxCell>
                <mxCell id="MBYqdPuZh9vwk6nwRBUG-61" style="shape=partialRectangle;html=1;whiteSpace=wrap;connectable=0;top=0;left=0;bottom=0;right=0;overflow=hidden;fontFamily=Verdana;fillColor=none;labelBackgroundColor=none;" parent="MBYqdPuZh9vwk6nwRBUG-60" vertex="1">
                    <mxGeometry width="48" height="30" as="geometry"/>
                </mxCell>
                <mxCell id="MBYqdPuZh9vwk6nwRBUG-62" value="&lt;span style=&quot;color: rgb(212, 212, 212); font-size: 15px; font-style: normal; font-weight: 400; letter-spacing: normal; text-align: left; text-indent: 0px; text-transform: none; word-spacing: 0px; display: inline; float: none;&quot;&gt;public:boolean&lt;/span&gt;" style="shape=partialRectangle;html=1;whiteSpace=wrap;connectable=0;top=0;left=0;bottom=0;right=0;align=left;spacingLeft=6;overflow=hidden;fontFamily=Verdana;fillColor=none;labelBackgroundColor=none;" parent="MBYqdPuZh9vwk6nwRBUG-60" vertex="1">
                    <mxGeometry x="48" width="192" height="30" as="geometry"/>
                </mxCell>
                <mxCell id="MBYqdPuZh9vwk6nwRBUG-63" value="" style="shape=partialRectangle;html=1;whiteSpace=wrap;collapsible=0;dropTarget=0;pointerEvents=0;top=0;left=0;bottom=0;right=0;points=[[0,0.5],[1,0.5]];portConstraint=eastwest;fontFamily=Verdana;fillColor=none;labelBackgroundColor=none;" parent="MBYqdPuZh9vwk6nwRBUG-56" vertex="1">
                    <mxGeometry y="140" width="240" height="30" as="geometry"/>
                </mxCell>
                <mxCell id="MBYqdPuZh9vwk6nwRBUG-64" value="" style="shape=partialRectangle;html=1;whiteSpace=wrap;connectable=0;top=0;left=0;bottom=0;right=0;overflow=hidden;fontFamily=Verdana;fillColor=none;labelBackgroundColor=none;" parent="MBYqdPuZh9vwk6nwRBUG-63" vertex="1">
                    <mxGeometry width="48" height="30" as="geometry"/>
                </mxCell>
                <mxCell id="MBYqdPuZh9vwk6nwRBUG-65" value="&lt;div style=&quot;color: rgb(212, 212, 212); font-size: 15px; line-height: 20px;&quot;&gt;&lt;div style=&quot;line-height: 20px&quot;&gt;img&lt;span style=&quot;color: rgb(240, 240, 240);&quot;&gt;:String&lt;/span&gt;&lt;/div&gt;&lt;/div&gt;" style="shape=partialRectangle;html=1;whiteSpace=wrap;connectable=0;top=0;left=0;bottom=0;right=0;align=left;spacingLeft=6;overflow=hidden;fontFamily=Verdana;fillColor=none;labelBackgroundColor=none;" parent="MBYqdPuZh9vwk6nwRBUG-63" vertex="1">
                    <mxGeometry x="48" width="192" height="30" as="geometry"/>
                </mxCell>
                <mxCell id="MBYqdPuZh9vwk6nwRBUG-66" value="" style="shape=partialRectangle;html=1;whiteSpace=wrap;collapsible=0;dropTarget=0;pointerEvents=0;top=0;left=0;bottom=0;right=0;points=[[0,0.5],[1,0.5]];portConstraint=eastwest;fontFamily=Verdana;fillColor=none;labelBackgroundColor=none;" parent="MBYqdPuZh9vwk6nwRBUG-56" vertex="1">
                    <mxGeometry y="170" width="240" height="30" as="geometry"/>
                </mxCell>
                <mxCell id="MBYqdPuZh9vwk6nwRBUG-67" value="" style="shape=partialRectangle;html=1;whiteSpace=wrap;connectable=0;top=0;left=0;bottom=0;right=0;overflow=hidden;fontFamily=Verdana;fillColor=none;labelBackgroundColor=none;" parent="MBYqdPuZh9vwk6nwRBUG-66" vertex="1">
                    <mxGeometry width="48" height="30" as="geometry"/>
                </mxCell>
                <mxCell id="MBYqdPuZh9vwk6nwRBUG-68" value="&lt;span style=&quot;color: rgb(212, 212, 212); font-size: 15px;&quot;&gt;textarea&lt;/span&gt;&lt;span style=&quot;font-size: 15px&quot;&gt;:String&lt;/span&gt;&lt;span style=&quot;color: rgb(212, 212, 212); font-size: 15px;&quot;&gt;&lt;br&gt;&lt;/span&gt;" style="shape=partialRectangle;html=1;whiteSpace=wrap;connectable=0;top=0;left=0;bottom=0;right=0;align=left;spacingLeft=6;overflow=hidden;fontFamily=Verdana;fillColor=none;labelBackgroundColor=none;" parent="MBYqdPuZh9vwk6nwRBUG-66" vertex="1">
                    <mxGeometry x="48" width="192" height="30" as="geometry"/>
                </mxCell>
                <mxCell id="MBYqdPuZh9vwk6nwRBUG-69" style="shape=partialRectangle;html=1;whiteSpace=wrap;collapsible=0;dropTarget=0;pointerEvents=0;top=0;left=0;bottom=0;right=0;points=[[0,0.5],[1,0.5]];portConstraint=eastwest;fontFamily=Verdana;fillColor=none;labelBackgroundColor=none;" parent="MBYqdPuZh9vwk6nwRBUG-56" vertex="1">
                    <mxGeometry y="200" width="240" height="30" as="geometry"/>
                </mxCell>
                <mxCell id="MBYqdPuZh9vwk6nwRBUG-70" style="shape=partialRectangle;html=1;whiteSpace=wrap;connectable=0;top=0;left=0;bottom=0;right=0;overflow=hidden;fontFamily=Verdana;fillColor=none;labelBackgroundColor=none;" parent="MBYqdPuZh9vwk6nwRBUG-69" vertex="1">
                    <mxGeometry width="48" height="30" as="geometry"/>
                </mxCell>
                <mxCell id="MBYqdPuZh9vwk6nwRBUG-71" value="&lt;span style=&quot;color: rgb(212, 212, 212); font-size: 15px;&quot;&gt;text&lt;/span&gt;&lt;span style=&quot;font-size: 15px&quot;&gt;:String&lt;/span&gt;" style="shape=partialRectangle;html=1;whiteSpace=wrap;connectable=0;top=0;left=0;bottom=0;right=0;align=left;spacingLeft=6;overflow=hidden;fontFamily=Verdana;fillColor=none;labelBackgroundColor=none;" parent="MBYqdPuZh9vwk6nwRBUG-69" vertex="1">
                    <mxGeometry x="48" width="192" height="30" as="geometry"/>
                </mxCell>
                <mxCell id="MBYqdPuZh9vwk6nwRBUG-72" style="shape=partialRectangle;html=1;whiteSpace=wrap;collapsible=0;dropTarget=0;pointerEvents=0;top=0;left=0;bottom=0;right=0;points=[[0,0.5],[1,0.5]];portConstraint=eastwest;fontFamily=Verdana;fillColor=none;labelBackgroundColor=none;" parent="MBYqdPuZh9vwk6nwRBUG-56" vertex="1">
                    <mxGeometry y="230" width="240" height="30" as="geometry"/>
                </mxCell>
                <mxCell id="MBYqdPuZh9vwk6nwRBUG-73" style="shape=partialRectangle;html=1;whiteSpace=wrap;connectable=0;top=0;left=0;bottom=0;right=0;overflow=hidden;fontFamily=Verdana;fillColor=none;labelBackgroundColor=none;" parent="MBYqdPuZh9vwk6nwRBUG-72" vertex="1">
                    <mxGeometry width="48" height="30" as="geometry"/>
                </mxCell>
                <mxCell id="MBYqdPuZh9vwk6nwRBUG-74" value="&lt;div style=&quot;color: rgb(212, 212, 212); font-size: 15px; line-height: 20px;&quot;&gt;datepicker:String&lt;/div&gt;" style="shape=partialRectangle;html=1;whiteSpace=wrap;connectable=0;top=0;left=0;bottom=0;right=0;align=left;spacingLeft=6;overflow=hidden;fontFamily=Verdana;fillColor=none;labelBackgroundColor=none;" parent="MBYqdPuZh9vwk6nwRBUG-72" vertex="1">
                    <mxGeometry x="48" width="192" height="30" as="geometry"/>
                </mxCell>
                <mxCell id="MBYqdPuZh9vwk6nwRBUG-75" style="shape=partialRectangle;html=1;whiteSpace=wrap;collapsible=0;dropTarget=0;pointerEvents=0;top=0;left=0;bottom=0;right=0;points=[[0,0.5],[1,0.5]];portConstraint=eastwest;fontFamily=Verdana;fillColor=none;labelBackgroundColor=none;" parent="MBYqdPuZh9vwk6nwRBUG-56" vertex="1">
                    <mxGeometry y="260" width="240" height="30" as="geometry"/>
                </mxCell>
                <mxCell id="MBYqdPuZh9vwk6nwRBUG-76" style="shape=partialRectangle;html=1;whiteSpace=wrap;connectable=0;top=0;left=0;bottom=0;right=0;overflow=hidden;fontFamily=Verdana;fillColor=none;labelBackgroundColor=none;" parent="MBYqdPuZh9vwk6nwRBUG-75" vertex="1">
                    <mxGeometry width="48" height="30" as="geometry"/>
                </mxCell>
                <mxCell id="MBYqdPuZh9vwk6nwRBUG-77" value="&lt;div style=&quot;color: rgb(212, 212, 212); font-size: 15px; line-height: 20px;&quot;&gt;&lt;/div&gt;&lt;span style=&quot;color: rgb(212, 212, 212); font-size: 15px;&quot;&gt;select or&amp;nbsp;&lt;/span&gt;&lt;span style=&quot;color: rgb(212 , 212 , 212) ; font-size: 15px&quot;&gt;btn&lt;/span&gt;&lt;span style=&quot;font-size: 15px&quot;&gt;:String&lt;/span&gt;" style="shape=partialRectangle;html=1;whiteSpace=wrap;connectable=0;top=0;left=0;bottom=0;right=0;align=left;spacingLeft=6;overflow=hidden;fontFamily=Verdana;fillColor=none;labelBackgroundColor=none;" parent="MBYqdPuZh9vwk6nwRBUG-75" vertex="1">
                    <mxGeometry x="48" width="192" height="30" as="geometry"/>
                </mxCell>
                <mxCell id="MBYqdPuZh9vwk6nwRBUG-78" value="&lt;p style=&quot;line-height: 120%&quot;&gt;&lt;/p&gt;&lt;table border=&quot;1&quot; width=&quot;100%&quot; style=&quot;text-align: center ; width: 100% ; height: 100% ; border-collapse: collapse&quot;&gt;&lt;tbody style=&quot;font-size: 15px&quot;&gt;&lt;tr&gt;&lt;td&gt;&lt;div style=&quot;text-align: center&quot;&gt;&lt;span style=&quot;font-weight: 700&quot;&gt;&lt;font face=&quot;Verdana&quot;&gt;&lt;br&gt;&lt;/font&gt;&lt;/span&gt;&lt;/div&gt;&lt;div style=&quot;text-align: center&quot;&gt;&lt;span style=&quot;font-weight: 700&quot;&gt;&lt;font face=&quot;Verdana&quot; style=&quot;font-size: 15px&quot;&gt;美字美句分享&lt;/font&gt;&lt;/span&gt;&lt;/div&gt;&lt;span style=&quot;font-weight: 700&quot;&gt;&lt;font face=&quot;Verdana&quot; style=&quot;font-size: 15px&quot;&gt;&lt;div style=&quot;text-align: center&quot;&gt;&lt;span&gt;#share&lt;/span&gt;&lt;/div&gt;&lt;div style=&quot;text-align: center&quot;&gt;&lt;span&gt;&lt;br&gt;&lt;/span&gt;&lt;/div&gt;&lt;/font&gt;&lt;/span&gt;&lt;/td&gt;&lt;td&gt;&lt;div style=&quot;text-align: center&quot;&gt;&lt;span style=&quot;font-weight: 700&quot;&gt;&lt;font face=&quot;Verdana&quot; style=&quot;font-size: 15px&quot;&gt;&lt;br&gt;&lt;/font&gt;&lt;/span&gt;&lt;/div&gt;&lt;div style=&quot;text-align: center&quot;&gt;&lt;span style=&quot;font-weight: 700&quot;&gt;&lt;font face=&quot;Verdana&quot; style=&quot;font-size: 15px&quot;&gt;心情隨筆&lt;/font&gt;&lt;/span&gt;&lt;/div&gt;&lt;span style=&quot;font-weight: 700&quot;&gt;&lt;font face=&quot;Verdana&quot; style=&quot;font-size: 15px&quot;&gt;&lt;div style=&quot;text-align: center&quot;&gt;&lt;span&gt;#diary&lt;/span&gt;&lt;/div&gt;&lt;div style=&quot;text-align: center&quot;&gt;&lt;span&gt;&lt;br&gt;&lt;/span&gt;&lt;/div&gt;&lt;/font&gt;&lt;/span&gt;&lt;/td&gt;&lt;td&gt;&lt;div style=&quot;text-align: center&quot;&gt;&lt;span style=&quot;font-weight: 700&quot;&gt;&lt;font face=&quot;Verdana&quot; style=&quot;font-size: 15px&quot;&gt;&lt;br&gt;&lt;/font&gt;&lt;/span&gt;&lt;/div&gt;&lt;div style=&quot;text-align: center&quot;&gt;&lt;span style=&quot;font-weight: 700&quot;&gt;&lt;font face=&quot;Verdana&quot; style=&quot;font-size: 15px&quot;&gt;筆記&lt;/font&gt;&lt;/span&gt;&lt;/div&gt;&lt;span style=&quot;font-weight: 700&quot;&gt;&lt;font face=&quot;Verdana&quot; style=&quot;font-size: 15px&quot;&gt;&lt;div style=&quot;text-align: center&quot;&gt;&lt;span&gt;#notes&lt;/span&gt;&lt;/div&gt;&lt;div style=&quot;text-align: center&quot;&gt;&lt;span&gt;&lt;br&gt;&lt;/span&gt;&lt;/div&gt;&lt;/font&gt;&lt;/span&gt;&lt;/td&gt;&lt;td&gt;&lt;div style=&quot;text-align: center&quot;&gt;&lt;span style=&quot;font-weight: 700&quot;&gt;&lt;font face=&quot;Verdana&quot; style=&quot;font-size: 15px&quot;&gt;&lt;br&gt;&lt;/font&gt;&lt;/span&gt;&lt;/div&gt;&lt;div style=&quot;text-align: center&quot;&gt;&lt;span style=&quot;font-weight: 700&quot;&gt;&lt;font face=&quot;Verdana&quot; style=&quot;font-size: 15px&quot;&gt;便利貼&lt;/font&gt;&lt;/span&gt;&lt;/div&gt;&lt;span style=&quot;font-weight: 700&quot;&gt;&lt;font face=&quot;Verdana&quot; style=&quot;font-size: 15px&quot;&gt;&lt;div style=&quot;text-align: center&quot;&gt;&lt;span&gt;#postIt&lt;/span&gt;&lt;/div&gt;&lt;div style=&quot;text-align: center&quot;&gt;&lt;span&gt;&lt;br&gt;&lt;/span&gt;&lt;/div&gt;&lt;/font&gt;&lt;/span&gt;&lt;/td&gt;&lt;td&gt;&lt;div style=&quot;text-align: center&quot;&gt;&lt;span style=&quot;font-weight: 700&quot;&gt;&lt;font face=&quot;Verdana&quot; style=&quot;font-size: 15px&quot;&gt;&lt;br&gt;&lt;/font&gt;&lt;/span&gt;&lt;/div&gt;&lt;div style=&quot;text-align: center&quot;&gt;&lt;span style=&quot;font-weight: 700&quot;&gt;&lt;font face=&quot;Verdana&quot; style=&quot;font-size: 15px&quot;&gt;待辦事項&lt;/font&gt;&lt;/span&gt;&lt;/div&gt;&lt;span style=&quot;font-weight: 700&quot;&gt;&lt;font face=&quot;Verdana&quot; style=&quot;font-size: 15px&quot;&gt;&lt;div style=&quot;text-align: center&quot;&gt;&lt;span&gt;#todo&lt;/span&gt;&lt;/div&gt;&lt;div style=&quot;text-align: center&quot;&gt;&lt;span&gt;&lt;br&gt;&lt;/span&gt;&lt;/div&gt;&lt;/font&gt;&lt;/span&gt;&lt;/td&gt;&lt;td&gt;&lt;div style=&quot;text-align: center&quot;&gt;&lt;span style=&quot;font-weight: 700&quot;&gt;&lt;font face=&quot;Verdana&quot; style=&quot;font-size: 15px&quot;&gt;&lt;br&gt;&lt;/font&gt;&lt;/span&gt;&lt;/div&gt;&lt;div style=&quot;text-align: center&quot;&gt;&lt;span style=&quot;font-weight: 700&quot;&gt;&lt;font face=&quot;Verdana&quot; style=&quot;font-size: 15px&quot;&gt;小說&lt;/font&gt;&lt;/span&gt;&lt;/div&gt;&lt;span style=&quot;font-weight: 700&quot;&gt;&lt;font face=&quot;Verdana&quot; style=&quot;font-size: 15px&quot;&gt;&lt;div style=&quot;text-align: center&quot;&gt;&lt;span&gt;#novel&lt;/span&gt;&lt;/div&gt;&lt;div style=&quot;text-align: center&quot;&gt;&lt;span&gt;&lt;br&gt;&lt;/span&gt;&lt;/div&gt;&lt;/font&gt;&lt;/span&gt;&lt;/td&gt;&lt;td&gt;&lt;div style=&quot;text-align: center&quot;&gt;&lt;span style=&quot;font-weight: 700&quot;&gt;&lt;font face=&quot;Verdana&quot; style=&quot;font-size: 15px&quot;&gt;&lt;br&gt;&lt;/font&gt;&lt;/span&gt;&lt;/div&gt;&lt;div style=&quot;text-align: center&quot;&gt;&lt;span style=&quot;font-weight: 700&quot;&gt;&lt;font face=&quot;Verdana&quot; style=&quot;font-size: 15px&quot;&gt;儲物清單&lt;/font&gt;&lt;/span&gt;&lt;/div&gt;&lt;span style=&quot;font-weight: 700&quot;&gt;&lt;font face=&quot;Verdana&quot; style=&quot;font-size: 15px&quot;&gt;&lt;div style=&quot;text-align: center&quot;&gt;&lt;span&gt;#storage&lt;/span&gt;&lt;/div&gt;&lt;div style=&quot;text-align: center&quot;&gt;&lt;span&gt;&lt;br&gt;&lt;/span&gt;&lt;/div&gt;&lt;/font&gt;&lt;/span&gt;&lt;/td&gt;&lt;/tr&gt;&lt;tr&gt;&lt;td&gt;&lt;div style=&quot;color: rgb(212 , 212 , 212) ; font-family: &amp;#34;consolas&amp;#34; , &amp;#34;courier new&amp;#34; , monospace ; font-size: 15px ; line-height: 20px&quot;&gt;&lt;font face=&quot;Verdana&quot;&gt;分享的字 *&lt;/font&gt;&lt;/div&gt;&lt;/td&gt;&lt;td&gt;&lt;font face=&quot;Verdana&quot;&gt;當日標題&lt;/font&gt;&lt;/td&gt;&lt;td&gt;&lt;div style=&quot;color: rgb(212 , 212 , 212) ; font-family: &amp;#34;consolas&amp;#34; , &amp;#34;courier new&amp;#34; , monospace ; line-height: 20px&quot;&gt;標題 *&lt;/div&gt;&lt;/td&gt;&lt;td&gt;&lt;div style=&quot;color: rgb(212 , 212 , 212) ; font-family: &amp;#34;consolas&amp;#34; , &amp;#34;courier new&amp;#34; , monospace ; line-height: 20px&quot;&gt;&lt;span style=&quot;font-family: &amp;#34;verdana&amp;#34;&quot;&gt;隨記的字 *&lt;/span&gt;&lt;br&gt;&lt;/div&gt;&lt;/td&gt;&lt;td&gt;&lt;font face=&quot;Verdana&quot;&gt;待辦事項主題 *&lt;/font&gt;&lt;/td&gt;&lt;td&gt;&lt;div style=&quot;color: rgb(212 , 212 , 212) ; font-family: &amp;#34;consolas&amp;#34; , &amp;#34;courier new&amp;#34; , monospace ; line-height: 20px&quot;&gt;書名 *&lt;/div&gt;&lt;/td&gt;&lt;td&gt;&lt;div style=&quot;color: rgb(212 , 212 , 212) ; font-family: &amp;#34;consolas&amp;#34; , &amp;#34;courier new&amp;#34; , monospace ; line-height: 20px&quot;&gt;品名 *&lt;/div&gt;&lt;/td&gt;&lt;/tr&gt;&lt;tr&gt;&lt;td&gt;&lt;span style=&quot;color: rgb(212 , 212 , 212) ; font-family: &amp;#34;consolas&amp;#34; , &amp;#34;courier new&amp;#34; , monospace&quot;&gt;是否公開 *&lt;/span&gt;&lt;br&gt;&lt;/td&gt;&lt;td&gt;&lt;span style=&quot;color: rgb(212 , 212 , 212) ; font-family: &amp;#34;consolas&amp;#34; , &amp;#34;courier new&amp;#34; , monospace&quot;&gt;是否公開 *&lt;/span&gt;&lt;br&gt;&lt;/td&gt;&lt;td&gt;&lt;span style=&quot;color: rgb(212 , 212 , 212) ; font-family: &amp;#34;consolas&amp;#34; , &amp;#34;courier new&amp;#34; , monospace&quot;&gt;是否公開 *&lt;/span&gt;&lt;br&gt;&lt;/td&gt;&lt;td&gt;&lt;span style=&quot;color: rgb(212 , 212 , 212) ; font-family: &amp;#34;consolas&amp;#34; , &amp;#34;courier new&amp;#34; , monospace&quot;&gt;是否公開 *&lt;/span&gt;&lt;br&gt;&lt;/td&gt;&lt;td&gt;&lt;span style=&quot;color: rgb(212 , 212 , 212) ; font-family: &amp;#34;consolas&amp;#34; , &amp;#34;courier new&amp;#34; , monospace&quot;&gt;是否公開 *&lt;/span&gt;&lt;br&gt;&lt;/td&gt;&lt;td&gt;&lt;span style=&quot;color: rgb(212 , 212 , 212) ; font-family: &amp;#34;consolas&amp;#34; , &amp;#34;courier new&amp;#34; , monospace&quot;&gt;是否公開 *&lt;/span&gt;&lt;br&gt;&lt;/td&gt;&lt;td&gt;&lt;span style=&quot;color: rgb(212 , 212 , 212) ; font-family: &amp;#34;consolas&amp;#34; , &amp;#34;courier new&amp;#34; , monospace&quot;&gt;是否公開 *&lt;/span&gt;&lt;br&gt;&lt;/td&gt;&lt;/tr&gt;&lt;tr&gt;&lt;td style=&quot;text-align: center&quot;&gt;&lt;div style=&quot;color: rgb(212 , 212 , 212) ; font-family: &amp;#34;consolas&amp;#34; , &amp;#34;courier new&amp;#34; , monospace ; font-size: 15px ; line-height: 20px&quot;&gt;&lt;font face=&quot;Verdana&quot;&gt;分享的圖&lt;/font&gt;&lt;/div&gt;&lt;/td&gt;&lt;td style=&quot;text-align: center&quot;&gt;&lt;br&gt;&lt;/td&gt;&lt;td style=&quot;text-align: center&quot;&gt;&lt;div style=&quot;color: rgb(212 , 212 , 212) ; font-family: &amp;#34;consolas&amp;#34; , &amp;#34;courier new&amp;#34; , monospace ; line-height: 20px&quot;&gt;內容 *&lt;/div&gt;&lt;/td&gt;&lt;td style=&quot;text-align: center&quot;&gt;&lt;font face=&quot;Verdana&quot;&gt;X&lt;/font&gt;&lt;/td&gt;&lt;td style=&quot;text-align: center&quot;&gt;&lt;br&gt;&lt;/td&gt;&lt;td style=&quot;text-align: center&quot;&gt;&lt;div style=&quot;color: rgb(212 , 212 , 212) ; font-family: &amp;#34;consolas&amp;#34; , &amp;#34;courier new&amp;#34; , monospace ; line-height: 20px&quot;&gt;書封面&lt;/div&gt;&lt;/td&gt;&lt;td style=&quot;text-align: center&quot;&gt;&lt;div style=&quot;color: rgb(212 , 212 , 212) ; font-family: &amp;#34;consolas&amp;#34; , &amp;#34;courier new&amp;#34; , monospace ; line-height: 20px&quot;&gt;物品圖片&lt;/div&gt;&lt;/td&gt;&lt;/tr&gt;&lt;tr&gt;&lt;td style=&quot;text-align: center&quot;&gt;&lt;div style=&quot;color: rgb(212 , 212 , 212) ; font-family: &amp;#34;consolas&amp;#34; , &amp;#34;courier new&amp;#34; , monospace ; font-size: 15px ; line-height: 20px&quot;&gt;&lt;font face=&quot;Verdana&quot;&gt;來自(引用)&lt;/font&gt;&lt;/div&gt;&lt;/td&gt;&lt;td style=&quot;text-align: center&quot;&gt;&lt;div style=&quot;color: rgb(212 , 212 , 212) ; font-family: &amp;#34;consolas&amp;#34; , &amp;#34;courier new&amp;#34; , monospace ; line-height: 20px&quot;&gt;記錄 *&lt;/div&gt;&lt;/td&gt;&lt;td style=&quot;text-align: center&quot;&gt;&lt;/td&gt;&lt;td style=&quot;text-align: center&quot;&gt;&lt;font face=&quot;Verdana&quot;&gt;X&lt;/font&gt;&lt;/td&gt;&lt;td style=&quot;text-align: center&quot;&gt;&lt;div style=&quot;color: rgb(212 , 212 , 212) ; font-family: &amp;#34;consolas&amp;#34; , &amp;#34;courier new&amp;#34; , monospace ; line-height: 20px&quot;&gt;&lt;span style=&quot;color: rgb(240 , 240 , 240) ; font-family: &amp;#34;helvetica&amp;#34;&quot;&gt;待辦&lt;/span&gt;事項細節&lt;/div&gt;&lt;/td&gt;&lt;td style=&quot;text-align: center&quot;&gt;&lt;div style=&quot;color: rgb(212 , 212 , 212) ; font-family: &amp;#34;consolas&amp;#34; , &amp;#34;courier new&amp;#34; , monospace ; line-height: 20px&quot;&gt;內容 *&lt;/div&gt;&lt;/td&gt;&lt;td style=&quot;text-align: center&quot;&gt;&lt;div style=&quot;color: rgb(212 , 212 , 212) ; font-family: &amp;#34;consolas&amp;#34; , &amp;#34;courier new&amp;#34; , monospace ; line-height: 20px&quot;&gt;&lt;span style=&quot;color: rgb(240 , 240 , 240) ; font-family: &amp;#34;helvetica&amp;#34;&quot;&gt;物品狀況描述&lt;/span&gt;&lt;/div&gt;&lt;/td&gt;&lt;/tr&gt;&lt;tr&gt;&lt;td style=&quot;text-align: center&quot;&gt;&lt;font face=&quot;Verdana&quot;&gt;X&lt;/font&gt;&lt;/td&gt;&lt;td style=&quot;text-align: center&quot;&gt;X&lt;font face=&quot;Verdana&quot;&gt;&lt;br&gt;&lt;/font&gt;&lt;/td&gt;&lt;td style=&quot;text-align: center&quot;&gt;&lt;font face=&quot;Verdana&quot;&gt;&lt;br&gt;&lt;/font&gt;&lt;/td&gt;&lt;td style=&quot;text-align: center&quot;&gt;&lt;font face=&quot;Verdana&quot;&gt;X&lt;/font&gt;&lt;/td&gt;&lt;td style=&quot;text-align: center&quot;&gt;&lt;div style=&quot;color: rgb(212 , 212 , 212) ; font-family: &amp;#34;consolas&amp;#34; , &amp;#34;courier new&amp;#34; , monospace ; line-height: 20px&quot;&gt;備註&lt;/div&gt;&lt;/td&gt;&lt;td style=&quot;text-align: center&quot;&gt;&lt;div style=&quot;color: rgb(212 , 212 , 212) ; font-family: &amp;#34;consolas&amp;#34; , &amp;#34;courier new&amp;#34; , monospace ; line-height: 20px&quot;&gt;作者 *&lt;/div&gt;&lt;/td&gt;&lt;td style=&quot;text-align: center&quot;&gt;&lt;div style=&quot;color: rgb(212 , 212 , 212) ; font-family: &amp;#34;consolas&amp;#34; , &amp;#34;courier new&amp;#34; , monospace ; line-height: 20px&quot;&gt;存放地點 *&lt;br&gt;&lt;/div&gt;&lt;/td&gt;&lt;/tr&gt;&lt;tr&gt;&lt;td style=&quot;text-align: center&quot;&gt;&lt;div style=&quot;color: rgb(212 , 212 , 212) ; font-family: &amp;#34;consolas&amp;#34; , &amp;#34;courier new&amp;#34; , monospace ; line-height: 20px&quot;&gt;&lt;/div&gt;&lt;/td&gt;&lt;td style=&quot;text-align: center&quot;&gt;&lt;span style=&quot;color: rgb(212 , 212 , 212) ; font-family: &amp;#34;consolas&amp;#34; , &amp;#34;courier new&amp;#34; , monospace&quot;&gt;日期&lt;/span&gt;&lt;/td&gt;&lt;td style=&quot;text-align: center&quot;&gt;&lt;span style=&quot;color: rgb(212 , 212 , 212) ; font-family: &amp;#34;consolas&amp;#34; , &amp;#34;courier new&amp;#34; , monospace&quot;&gt;日期&lt;/span&gt;&lt;/td&gt;&lt;td style=&quot;text-align: center&quot;&gt;&lt;/td&gt;&lt;td style=&quot;text-align: center&quot;&gt;&lt;span style=&quot;color: rgb(212 , 212 , 212) ; font-family: &amp;#34;consolas&amp;#34; , &amp;#34;courier new&amp;#34; , monospace&quot;&gt;期限&lt;/span&gt;&lt;/td&gt;&lt;td style=&quot;text-align: center&quot;&gt;&lt;span style=&quot;font-family: &amp;#34;verdana&amp;#34;&quot;&gt;完結日期&lt;/span&gt;&lt;/td&gt;&lt;td style=&quot;text-align: center&quot;&gt;購買日期&lt;font face=&quot;Verdana&quot;&gt;&lt;br&gt;&lt;/font&gt;&lt;/td&gt;&lt;/tr&gt;&lt;tr&gt;&lt;td&gt;X&lt;font face=&quot;Verdana&quot;&gt;&lt;br&gt;&lt;/font&gt;&lt;/td&gt;&lt;td&gt;&lt;div style=&quot;color: rgb(212 , 212 , 212) ; font-family: &amp;#34;consolas&amp;#34; , &amp;#34;courier new&amp;#34; , monospace ; line-height: 20px&quot;&gt;心情&lt;br&gt;&lt;/div&gt;&lt;/td&gt;&lt;td&gt;X&lt;font face=&quot;Verdana&quot;&gt;&lt;br&gt;&lt;/font&gt;&lt;/td&gt;&lt;td&gt;&lt;font face=&quot;Verdana&quot;&gt;X&lt;/font&gt;&lt;/td&gt;&lt;td&gt;&lt;div style=&quot;color: rgb(212 , 212 , 212) ; font-family: &amp;#34;consolas&amp;#34; , &amp;#34;courier new&amp;#34; , monospace ; line-height: 20px&quot;&gt;重要程度 *&lt;br&gt;&lt;/div&gt;&lt;/td&gt;&lt;td&gt;&lt;span style=&quot;color: rgb(212 , 212 , 212) ; font-family: &amp;#34;consolas&amp;#34; , &amp;#34;courier new&amp;#34; , monospace&quot;&gt;是否已&lt;/span&gt;完結&lt;/td&gt;&lt;td&gt;&lt;span style=&quot;color: rgb(212 , 212 , 212) ; font-family: &amp;#34;consolas&amp;#34; , &amp;#34;courier new&amp;#34; , monospace&quot;&gt;物品狀況&lt;/span&gt;&lt;br&gt;&lt;/td&gt;&lt;/tr&gt;&lt;tr&gt;&lt;td&gt;&lt;/td&gt;&lt;td&gt;&lt;/td&gt;&lt;td&gt;&lt;/td&gt;&lt;td&gt;&lt;/td&gt;&lt;td&gt;&lt;/td&gt;&lt;td&gt;&lt;/td&gt;&lt;td&gt;&lt;/td&gt;&lt;/tr&gt;&lt;/tbody&gt;&lt;/table&gt;&lt;br&gt;&lt;p&gt;&lt;/p&gt;" style="text;html=1;strokeColor=none;overflow=fill;strokeWidth=2;dashed=1;dashPattern=1 2;labelBackgroundColor=none;" parent="1" vertex="1">
                    <mxGeometry x="340" y="426" width="748" height="310" as="geometry"/>
                </mxCell>
                <mxCell id="MBYqdPuZh9vwk6nwRBUG-79" style="edgeStyle=orthogonalEdgeStyle;rounded=0;orthogonalLoop=1;jettySize=auto;html=1;exitX=1;exitY=0.5;exitDx=0;exitDy=0;entryX=0.009;entryY=0.083;entryDx=0;entryDy=0;entryPerimeter=0;fontFamily=Verdana;fontSize=15;endArrow=diamond;endFill=1;" parent="1" source="MBYqdPuZh9vwk6nwRBUG-37" target="MBYqdPuZh9vwk6nwRBUG-40" edge="1">
                    <mxGeometry relative="1" as="geometry"/>
                </mxCell>
                <mxCell id="MBYqdPuZh9vwk6nwRBUG-80" style="edgeStyle=orthogonalEdgeStyle;rounded=0;orthogonalLoop=1;jettySize=auto;html=1;exitX=1;exitY=0.5;exitDx=0;exitDy=0;entryX=0.5;entryY=0;entryDx=0;entryDy=0;fontFamily=Verdana;fontSize=15;endArrow=diamond;endFill=1;" parent="1" source="MBYqdPuZh9vwk6nwRBUG-53" target="MBYqdPuZh9vwk6nwRBUG-56" edge="1">
                    <mxGeometry relative="1" as="geometry"/>
                </mxCell>
                <mxCell id="11" value="" style="group" vertex="1" connectable="0" parent="1">
                    <mxGeometry x="35" y="130" width="250" height="170" as="geometry"/>
                </mxCell>
                <mxCell id="MBYqdPuZh9vwk6nwRBUG-1" value="uesrs" style="shape=table;startSize=30;container=1;collapsible=0;childLayout=tableLayout;fixedRows=1;rowLines=0;fontStyle=1;align=center;fontFamily=Verdana;fontSize=15;" parent="11" vertex="1">
                    <mxGeometry width="250" height="170" as="geometry"/>
                </mxCell>
                <mxCell id="MBYqdPuZh9vwk6nwRBUG-2" value="" style="shape=partialRectangle;html=1;whiteSpace=wrap;collapsible=0;dropTarget=0;pointerEvents=0;fillColor=none;top=0;left=0;bottom=1;right=0;points=[[0,0.5],[1,0.5]];portConstraint=eastwest;fontFamily=Verdana;fontSize=15;" parent="MBYqdPuZh9vwk6nwRBUG-1" vertex="1">
                    <mxGeometry y="30" width="250" height="30" as="geometry"/>
                </mxCell>
                <mxCell id="MBYqdPuZh9vwk6nwRBUG-3" value="PK" style="shape=partialRectangle;html=1;whiteSpace=wrap;connectable=0;fillColor=none;top=0;left=0;bottom=0;right=0;overflow=hidden;fontFamily=Verdana;fontSize=15;" parent="MBYqdPuZh9vwk6nwRBUG-2" vertex="1">
                    <mxGeometry width="56" height="30" as="geometry"/>
                </mxCell>
                <mxCell id="MBYqdPuZh9vwk6nwRBUG-4" value="&lt;span style=&quot;text-align: center; font-size: 15px;&quot;&gt;_id&lt;/span&gt;" style="shape=partialRectangle;html=1;whiteSpace=wrap;connectable=0;fillColor=none;top=0;left=0;bottom=0;right=0;align=left;spacingLeft=6;overflow=hidden;fontFamily=Verdana;fontSize=15;" parent="MBYqdPuZh9vwk6nwRBUG-2" vertex="1">
                    <mxGeometry x="56" width="194" height="30" as="geometry"/>
                </mxCell>
                <mxCell id="MBYqdPuZh9vwk6nwRBUG-5" value="" style="shape=partialRectangle;html=1;whiteSpace=wrap;collapsible=0;dropTarget=0;pointerEvents=0;fillColor=none;top=0;left=0;bottom=0;right=0;points=[[0,0.5],[1,0.5]];portConstraint=eastwest;fontFamily=Verdana;fontSize=15;" parent="MBYqdPuZh9vwk6nwRBUG-1" vertex="1">
                    <mxGeometry y="60" width="250" height="30" as="geometry"/>
                </mxCell>
                <mxCell id="MBYqdPuZh9vwk6nwRBUG-6" value="" style="shape=partialRectangle;html=1;whiteSpace=wrap;connectable=0;fillColor=none;top=0;left=0;bottom=0;right=0;overflow=hidden;fontFamily=Verdana;fontSize=15;" parent="MBYqdPuZh9vwk6nwRBUG-5" vertex="1">
                    <mxGeometry width="56" height="30" as="geometry"/>
                </mxCell>
                <mxCell id="MBYqdPuZh9vwk6nwRBUG-7" value="account: String" style="shape=partialRectangle;html=1;whiteSpace=wrap;connectable=0;fillColor=none;top=0;left=0;bottom=0;right=0;align=left;spacingLeft=6;overflow=hidden;fontFamily=Verdana;fontSize=15;" parent="MBYqdPuZh9vwk6nwRBUG-5" vertex="1">
                    <mxGeometry x="56" width="194" height="30" as="geometry"/>
                </mxCell>
                <mxCell id="MBYqdPuZh9vwk6nwRBUG-8" value="" style="shape=partialRectangle;html=1;whiteSpace=wrap;collapsible=0;dropTarget=0;pointerEvents=0;fillColor=none;top=0;left=0;bottom=0;right=0;points=[[0,0.5],[1,0.5]];portConstraint=eastwest;fontFamily=Verdana;fontSize=15;" parent="MBYqdPuZh9vwk6nwRBUG-1" vertex="1">
                    <mxGeometry y="90" width="250" height="30" as="geometry"/>
                </mxCell>
                <mxCell id="MBYqdPuZh9vwk6nwRBUG-9" value="" style="shape=partialRectangle;html=1;whiteSpace=wrap;connectable=0;fillColor=none;top=0;left=0;bottom=0;right=0;overflow=hidden;fontFamily=Verdana;fontSize=15;" parent="MBYqdPuZh9vwk6nwRBUG-8" vertex="1">
                    <mxGeometry width="56" height="30" as="geometry"/>
                </mxCell>
                <mxCell id="MBYqdPuZh9vwk6nwRBUG-10" value="password: String" style="shape=partialRectangle;html=1;whiteSpace=wrap;connectable=0;fillColor=none;top=0;left=0;bottom=0;right=0;align=left;spacingLeft=6;overflow=hidden;fontFamily=Verdana;fontSize=15;" parent="MBYqdPuZh9vwk6nwRBUG-8" vertex="1">
                    <mxGeometry x="56" width="194" height="30" as="geometry"/>
                </mxCell>
                <mxCell id="MBYqdPuZh9vwk6nwRBUG-11" style="shape=partialRectangle;html=1;whiteSpace=wrap;collapsible=0;dropTarget=0;pointerEvents=0;fillColor=none;top=0;left=0;bottom=0;right=0;points=[[0,0.5],[1,0.5]];portConstraint=eastwest;fontFamily=Verdana;fontSize=15;" parent="MBYqdPuZh9vwk6nwRBUG-1" vertex="1">
                    <mxGeometry y="120" width="250" height="30" as="geometry"/>
                </mxCell>
                <mxCell id="MBYqdPuZh9vwk6nwRBUG-12" style="shape=partialRectangle;html=1;whiteSpace=wrap;connectable=0;fillColor=none;top=0;left=0;bottom=0;right=0;overflow=hidden;fontFamily=Verdana;fontSize=15;" parent="MBYqdPuZh9vwk6nwRBUG-11" vertex="1">
                    <mxGeometry width="56" height="30" as="geometry"/>
                </mxCell>
                <mxCell id="MBYqdPuZh9vwk6nwRBUG-13" value="writing:&amp;nbsp;writing[0...*]" style="shape=partialRectangle;html=1;whiteSpace=wrap;connectable=0;fillColor=none;top=0;left=0;bottom=0;right=0;align=left;spacingLeft=6;overflow=hidden;fontFamily=Verdana;fontSize=15;" parent="MBYqdPuZh9vwk6nwRBUG-11" vertex="1">
                    <mxGeometry x="56" width="194" height="30" as="geometry"/>
                </mxCell>
                <mxCell id="MBYqdPuZh9vwk6nwRBUG-81" style="edgeStyle=orthogonalEdgeStyle;rounded=0;orthogonalLoop=1;jettySize=auto;html=1;exitX=1;exitY=0.5;exitDx=0;exitDy=0;entryX=0.005;entryY=0.108;entryDx=0;entryDy=0;entryPerimeter=0;fontFamily=Verdana;fontSize=15;endArrow=diamond;endFill=1;" parent="11" source="MBYqdPuZh9vwk6nwRBUG-11" target="MBYqdPuZh9vwk6nwRBUG-30" edge="1">
                    <mxGeometry relative="1" as="geometry"/>
                </mxCell>
            </root>
        </mxGraphModel>
    </diagram>
</mxfile>